<?xml version="1.0" encoding="utf-8"?>
<!DOCTYPE svg PUBLIC "-//W3C//DTD SVG 1.1//EN" "http://www.w3.org/Graphics/SVG/1.1/DTD/svg11.dtd">
<svg version="1.1" xmlns="http://www.w3.org/2000/svg" width="1274px" height="706px" viewBox="0 0 1274 706" style='background-color: #fff;'>
<title>Fill 1</title>
<style>
	<![CDATA[
#ug-am {
	fill: rgba(149, 117, 205, 0.4);
	stroke: rgba(149, 117, 205, 0.8);
	stroke-width: 1px;
	}
#sev-am {
	fill: rgba(77, 182, 172, 0.4);
	stroke: rgba(77, 182, 172, 0.8);
	stroke-width: 1px;
	}
#grenlandia {
	fill: rgba(224, 224, 224, 0.4);
	stroke: rgba(224, 224, 224, 0.8);
	stroke-width: 1px;
	}
#africa {
	fill: rgba(255, 183, 77, 0.4);
	stroke: rgba(255, 183, 77, 0.8);
	stroke-width: 1px;
	}
#evrazia {
	fill: rgba(100, 181, 246, 0.4);
	stroke: rgba(100, 181, 246, 0.8);
	stroke-width: 1px;
	}
#avstralia {
	fill: rgba(161, 136, 127, 0.4);
	stroke: rgba(161, 136, 127, 0.8);
	stroke-width: 1px;
	}
    ]]>
  </style>
<g>
	<polygon id="ug-am" fill="#112C65" points="321.14,410.62 321.14,433.137 303.35,450.944 303.35,471.367 330.036,498.081
		330.036,515.358 341.022,526.358 341.022,598.106 335.527,603.606 335.527,634.764 330,640.3 330,647.858 334.222,647.858
		334.222,639.813 336.838,639.813 336.838,654.663 329.774,661.735 329.774,693.941 341.154,705.338 360.907,705.338
		349.46,693.882 349.46,685.044 362.77,671.719 362.77,666.709 355.148,666.709 355.148,659.903 361.84,653.209 361.84,639.812
		372.938,639.812 372.938,625.862 387.068,625.862 395.178,617.744 381.835,604.387 400.145,604.387 407.471,597.055
		407.471,586.584 419.769,574.273 419.769,563.54 435.596,547.7 446.191,547.7 456.593,537.29 456.593,509.074 473.628,492.021
		473.628,473.987 460.318,473.987 450.902,464.562 435.204,464.562 435.204,453.039 423.17,453.039 415.32,445.183 415.32,429.473
		409.566,423.712 388.488,423.712 370.252,405.458 354.626,405.458 349.096,399.92 343.638,399.92 343.638,409.05 338.93,409.05
		338.93,397 334.484,401.456 328.466,401.456 321.139,410.624 	"/>
	<polygon id="sev-am" fill="#112C65" points="246.844,327.87 246.844,359.294 257.83,370.29 270.913,370.29 281.377,359.817
		287.655,359.817 287.655,378.672 299.165,378.672 299.165,402.239 305.708,408.784 321.138,408.784 321.138,414.804
		300.211,414.804 294.196,408.784 287.656,408.784 287.656,400.664 282.683,395.692 273.527,395.692 259.27,381.42 237.423,381.42
		219.855,363.834 219.855,354.056 204.311,338.496 204.311,331.536 188.427,315.638 185.103,315.638 194.089,324.638
		194.089,332.06 206.599,344.584 200.799,344.584 190.879,334.654 185.103,334.654 185.103,323.71 177.41,316.01 177.41,302.587
		170.976,302.587 159.276,290.877 159.276,282.307 152.829,275.857 152.829,228.892 156.846,228.892 160.508,232.554
		160.508,225.744 148.735,213.964 139.579,213.964 139.579,207.941 121.789,190.138 116.559,190.138 116.559,171.806
		108.709,171.806 99.031,162.119 76.27,162.119 71.17,157.014 65.805,157.014 65.805,161.334 70.515,161.334 70.515,164.472
		60.05,164.472 52.987,171.544 50.633,169.191 50.633,163.427 56.389,157.667 56.389,153.477 51.415,158.452 44.878,164.998
		44.878,171.284 29.181,186.994 21.851,186.994 12.174,196.682 5.114,196.682 18.584,183.198 26.042,183.198 36.18,173.05
		22.9,173.05 18.29,177.666 18.29,164.996 8.25,164.996 8.25,156.62 0.928,156.62 0.928,153.476 8.252,146.144 17.67,146.144
		17.67,137.242 0.928,137.242 0.928,129.386 5.636,124.671 9.298,124.671 16.362,131.741 16.362,124.671 2.63,110.925 2.63,105.82
		9.298,105.82 20.548,94.558 42.263,94.558 48.148,100.451 89.873,100.451 104.327,114.918 111.329,114.918 111.329,107.39
		117.869,100.844 134.349,100.844 138.403,104.904 143.766,104.904 138.209,99.336 144.289,99.336 153.281,108.339 186.147,108.339
		186.147,118.389 198.181,118.389 198.181,113.672 208.121,123.624 208.121,109.482 218.064,109.482 223.558,114.98 245.793,114.98
		256.651,104.115 252.336,99.795 260.706,91.415 268.816,99.533 264.37,103.988 273,112.624 278.234,107.389 281.374,110.533
		277.448,114.46 284.25,121.266 284.25,129.386 258.48,155.179 258.48,170.236 265.154,170.236 265.154,177.042 275.616,177.042
		290.79,192.23 303.87,192.23 303.87,201.655 312.765,210.56 318.783,204.537 312.505,198.254 312.505,192.231 322.052,182.674
		312.505,173.117 319.832,165.783 314.335,160.285 314.335,149.287 334.22,149.287 341.282,156.357 347.822,156.357
		347.822,165.523 355.672,173.377 367.704,161.333 367.704,169.19 375.814,177.305 375.814,186.993 391.249,186.993
		391.249,195.373 395.699,199.823 395.699,208.463 386.542,208.463 381.31,213.703 357.766,213.703 342.33,229.153 342.33,234.123
		357.11,219.333 367.182,219.333 367.182,229.937 371.63,234.387 371.63,240.933 357.766,240.933 357.766,246.696 348.87,246.696
		343.834,251.738 343.834,259.265 332.227,270.887 329.087,274.027 329.087,282.832 325.847,282.832 325.847,274.976
		321.927,278.906 321.927,283.358 325.457,286.888 325.457,293.305 308.649,310.13 308.649,318.446 312.244,326.826
		312.244,337.299 305.966,337.299 298.902,330.228 298.902,323.71 292.217,317.018 275.617,317.018 280.791,322.2 270.385,322.2
		264.585,316.392 255.737,316.392 246.843,327.87 	"/>
	<polygon id="grenlandia" fill="#112C65" points="452.468,130.957 452.468,139.859 446.715,145.621 446.715,163.947
		436.772,163.947 429.187,156.357 423.17,156.357 411.04,144.214 419.018,136.228 412.394,129.596 405.904,129.596 405.904,115.244
		416.89,104.246 403.285,90.629 403.285,93.771 398.053,93.771 398.053,74.395 383.405,59.732 363.523,59.732 357.503,65.755
		337.013,45.245 342.508,39.745 362.998,39.745 367.924,34.815 363.524,30.402 355.148,30.402 366.66,18.882 377.125,18.882
		382.359,13.642 407.995,13.642 415.583,21.237 415.583,10.505 428.401,10.505 431.539,7.36 448.805,7.36 455.442,0.72
		489.092,0.72 489.092,7.36 507.929,7.36 517.085,16.525 491.185,16.525 489.223,18.489 509.5,18.489 509.5,28.309 520.226,17.569
		535.138,17.569 541.026,11.682 550.311,11.682 557.311,18.684 552.928,23.07 543.508,23.07 526.245,40.352 526.245,50.305
		531.999,50.305 531.999,57.113 520.49,57.113 520.49,70.73 512.118,79.107 507.146,74.132 502.696,74.132 502.696,82.336
		516.826,82.336 516.826,91.416 496.55,111.71 481.77,111.71 469.54,123.952 459.27,123.952 	"/>
	<polygon id="africa" fill="#112C65" points="721.68,323.71 721.68,348.02 728.236,354.582 728.236,366.649 733.442,371.862
			733.442,379.192 751.229,397 751.229,402.766 755.94,402.766 761.694,397 780.426,397 780.426,408.94 768.806,420.57
			768.806,431.35 736.386,463.804 736.386,490.422 741.421,495.462 741.421,520.212 736.059,525.574 727.421,525.574
			716.698,536.31 722.978,542.596 722.978,559.356 712.798,559.356 712.798,565.399 716.96,569.567 688.442,598.107
			679.024,598.107 674.313,602.822 660.714,602.822 660.714,595.49 664.887,591.31 658.599,585.012 658.599,571.947
			652.339,565.682 652.339,543.644 636.117,527.404 636.117,510.125 640.827,505.41 640.827,469.275 623.824,452.257
			632.454,443.612 632.454,431.698 611.53,431.698 611.53,421.418 600.348,421.418 590.078,431.698 562.216,431.698
			550.053,419.518 550.053,409.835 528.863,388.625 537.76,379.719 537.76,359.297 533.57,355.106 533.57,344.108 550.822,326.841
			558.685,326.841 558.685,305.877 571.765,292.784 587.988,292.784 596.358,284.404 632.458,284.404 637.431,289.381
			631.938,294.879 631.938,302.589 644.492,302.589 653.565,311.668 659.665,311.668 664.362,316.368 664.362,302.589
			670.656,302.589 679.626,311.565 701.526,311.565 705.412,307.677 713.382,307.677 721.682,323.713 	"/>
	<polygon id="africa" fill="#112C65" points="753.32,522.17 753.32,536.308 747.308,542.332 747.308,556.213 757.662,566.576 768.521,555.712
			768.521,535.26 779.495,524.275 779.495,509.075 772.952,502.523 753.322,522.17	"/>
	<polygon id="africa" fill="#112C65" points="794.31,264.4 789.424,264.4 789.424,285.945 777.954,285.945 771.878,279.863 771.878,268.8
		763.398,260.313 763.398,242.857 783.401,230.285 783.401,246.598 794.312,257.522 794.312,264.399 	"/>
	<polygon id="evrazia" fill="#112C65" points="561.443,186.624 557.215,190.904 554.045,190.904 554.045,197.588 558.009,201.6 554.045,201.6
			554.045,207.08 561.442,207.08 568.507,199.928 568.507,186.624 561.442,186.624 		"/>
	<polygon id="evrazia" fill="#112C65" points="572.667,172.184 568.772,176.13 573.066,180.474 573.066,189.967 577.952,189.967 581.452,193.51
			577.687,197.319 574.253,197.319 574.253,206.144 580.198,206.144 570.62,215.837 573.328,215.837 577.061,212.061
			594.461,212.061 594.461,207.614 597.699,204.34 597.699,200.796 593.143,200.796 593.143,194.648 581.256,182.612
			579.801,181.142 583.501,177.398 583.501,172.184 578.349,172.184 578.349,169.914 583.303,164.898 583.303,162.158
			578.747,162.158 575.379,165.568 572.933,165.568 572.668,172.184 		"/>
	<polygon id="evrazia" fill="#112C65" points="510.548,127.292 510.548,134.622 517.906,141.989 530.952,141.989 544.052,128.879
			537.232,122.053 527.302,122.053 522.322,127.031 518.656,123.361 510.548,123.361 510.548,127.291 		"/>
	<polygon id="evrazia" fill="#112C65" points="1266.606,114.373 1256.494,114.373 1256.494,121.703 1250.562,115.769 1250.562,105.642
			1235.56,105.642 1227.54,97.612 1207.308,97.612 1207.308,108.086 1198.235,108.086 1189.868,99.71 1171.731,99.71
			1167.194,104.248 1158.474,95.518 1129.174,95.518 1129.174,81.904 1121.851,81.904 1116.617,87.139 1108.247,78.761
			1091.503,78.761 1091.503,89.231 1071.272,89.231 1061.153,99.357 1050.341,88.534 1055.573,83.296 1044.063,71.778
			1032.203,71.778 1032.203,80.918 1025.243,80.918 1018.948,74.613 999.456,74.613 982.669,91.413 976.353,88.578 999.415,65.491
			999.415,57.111 972.205,57.111 972.205,45.768 961.91,45.768 946.767,60.928 940.114,54.272 925.412,54.272 914.997,64.692
			901.642,64.692 891.771,74.57 891.771,90.51 886.771,95.518 886.771,84.674 880.118,78.017 873.968,78.017 868.388,83.602
			873.315,88.537 873.315,98.137 866.603,91.417 866.603,79.892 858.666,87.838 858.666,115.244 851.518,122.404 846.285,122.404
			855.701,112.974 855.701,83.604 843.715,83.604 835.915,91.414 835.915,109.738 823.61,97.428 804.26,97.428 811.75,104.918
			776.33,104.918 763.16,118.104 755.24,110.181 755.24,119.041 744.3,119.041 725.496,137.859 719.661,132.019 719.661,122.053
			713.381,122.053 718.791,116.641 725.946,123.802 732.57,123.802 741.38,114.981 730.126,103.721 713.56,103.721 708.497,98.661
			700.477,98.661 695.944,94.121 676.408,94.121 668.735,101.803 660.363,101.803 640.133,122.053 640.133,132.02 632.456,132.02
			632.456,141.464 624.926,141.464 615.016,151.379 620.252,156.619 612.925,163.947 612.925,173.027 626.875,173.027
			633.141,166.757 641.863,175.487 647.755,181.387 654.715,174.423 654.715,168.909 661.062,162.552 664.621,158.992
			659.808,154.175 659.808,142.163 670.382,131.576 673.622,128.339 687.576,128.339 670.129,145.796 670.129,157.314
			674.839,157.314 674.839,163.774 681.293,157.314 699.085,157.314 692.458,163.947 681.29,163.947 681.29,174.247
			670.127,174.247 670.127,188.043 664.203,188.043 664.203,193.278 659.073,188.142 654.643,192.576 647.106,192.576
			638.037,183.499 633.332,183.499 633.332,174.249 627.924,179.661 627.924,196.769 625.134,199.561 610.094,199.561
			610.094,209.124 596.626,222.604 591.124,222.604 586.414,227.32 580.136,227.32 580.136,231.787 585.09,231.787 591.614,238.317
			591.614,250.071 587.985,253.705 581.116,253.705 576.998,249.579 564.964,249.579 558.392,256.159 564.964,256.159
			564.964,263.981 558.276,270.673 558.276,277.073 565.281,284.086 571.243,284.086 571.243,288.594 576.475,283.359
			586.415,283.359 591.911,277.859 591.911,269.086 602.703,258.284 602.703,249.579 611.528,249.579 614.866,252.919
			620.359,247.419 628.272,247.419 634.976,254.129 634.976,259.791 639.783,259.791 650.509,270.527 650.509,282.307
			656.393,276.415 656.393,270.79 662.28,270.79 662.28,267.644 654.643,262.932 638.843,247.115 638.843,239.888 644.283,245.335
			649.383,250.443 660.189,250.443 660.189,257.693 665.16,262.669 665.16,272.881 670.653,272.881 670.653,279.167
			676.144,284.665 676.144,270.262 683.604,262.798 697.336,262.798 697.336,253.108 707.344,243.094 707.344,237.267
			713.037,237.267 713.037,244.077 718.139,249.182 723.104,244.207 731.345,244.207 738.673,251.537 746.039,256.947
			739.892,263.101 727.336,263.101 724.544,260.311 711.983,260.311 701.523,270.786 691.06,270.786 691.06,276.366 704.14,289.462
			709.2,284.399 726.576,284.399 726.576,294.461 713.381,307.669 721.681,323.706 724.897,323.706 724.897,337.466 736.41,348.99
			736.41,361.21 743.033,361.21 753.846,372.032 753.846,392.306 764.824,392.306 779.494,377.62 789.424,377.62 808.261,358.767
			808.261,343.757 798.846,343.757 792.914,337.82 785.938,344.8 775.47,344.8 775.47,331.534 767.8,331.534 767.8,318.093
			773.555,318.093 787.333,331.882 802.333,331.882 813.143,342.705 832.681,342.705 847.948,357.991 853.956,351.976
			853.956,380.76 861.283,388.091 861.283,406.947 871.463,417.14 887.926,400.662 887.926,385.435 899.921,373.431 899.921,362.75
			913.523,349.134 931.048,366.674 931.048,383.214 936.418,377.828 944.588,386.003 944.588,410.853 955.338,421.613
			955.338,430.118 972.656,447.455 972.656,441.063 965.781,434.185 965.781,421.065 952.671,407.945 952.671,390.893
			969.707,407.946 980.465,397.175 980.465,378.434 967.56,365.516 977.332,355.733 985.248,363.656 985.248,352.967
			994.53,343.677 1006.656,343.677 1031.343,318.969 1031.343,298.558 1021.215,288.42 1027.147,282.482 1022.437,277.767
			1014.761,277.767 1007.087,270.087 1019.646,270.087 1028.018,261.711 1028.018,276.371 1033.601,270.791 1039.177,270.791
			1039.177,279.169 1043.365,279.169 1043.365,293.135 1047.725,297.496 1056.621,288.594 1056.621,274.279 1046.175,274.279
			1046.175,263.127 1061.505,247.79 1072.271,247.79 1098.128,221.908 1098.128,194.328 1093.473,189.668 1088.71,194.436
			1075.913,194.436 1102.663,167.66 1123.373,167.66 1131.263,159.76 1131.263,164.795 1144.233,164.795 1150.376,158.639
			1164.754,144.249 1174.172,144.249 1174.172,155.221 1148.009,181.407 1148.009,208.707 1154.354,208.707 1169.771,193.277
			1169.771,184.337 1173.393,180.707 1173.393,168.847 1185.679,156.547 1204.099,156.547 1218.469,142.163 1232.277,142.163
			1221.26,131.131 1240.271,131.131 1240.271,121.178 1251.953,132.876 1261.377,132.876 1273.237,121.004 1266.606,114.371 		"/>
	<polygon id="evrazia" fill="#112C65" points="1092.896,258.116 1092.896,272.882 1079.64,286.149 1069.174,286.149 1060.804,294.527
			1060.804,302.587 1071.457,291.924 1076.5,296.971 1083.827,296.971 1083.827,292.431 1092.897,292.431 1098.478,284.401
			1098.478,274.28 1102.663,274.28 1102.663,266.604 1092.896,258.118 		"/>
	<polygon id="evrazia" fill="#112C65" points="1097.082,234.65 1097.082,246.61 1092.11,251.586 1092.11,258.116 1096.985,253.234
			1104.008,260.26 1114.601,249.66 1109.417,244.473 1103.356,244.473 1097.083,234.65 		"/>
	<polygon id="evrazia" fill="#112C65" points="1024.874,334.33 1018.331,340.882 1018.331,350.152 1026.275,350.152 1026.275,344.459
			1031.509,339.219 1024.875,334.329 		"/>
	<polygon id="avstralia" fill="#112C65" points="939.59,425.283 946.392,425.283 961.829,440.731 961.829,449.897 972.945,461.025
			972.945,467.178 967.775,472.35 955.515,460.074 955.515,450.944 939.442,434.859 939.589,425.282 		"/>
	<polygon id="avstralia" fill="#112C65" points="982.322,438.025 982.322,447.455 986.856,451.992 986.856,460.719 993.307,467.177
			1002.902,467.177 1014.719,455.346 1014.719,443.61 1017.533,440.799 1011.62,434.882 1011.62,426.85 1017.534,426.85
			1020.854,423.524 1011.444,414.11 990.346,437.5 		"/>
	<polygon id="avstralia" fill="#112C65" points="977.442,472.349 972.608,477.185 977.263,481.845 997.67,481.845 1001.982,486.158
			1028.714,486.158 1033.577,481.296 1007.787,481.296 1001.907,475.411 982.32,475.411 977.44,472.347 		"/>
	<polygon id="avstralia" fill="#112C65" points="1063.247,448.815 1063.247,455.135 1070.922,455.135 1070.922,458.973 1065.37,464.528
			1075.457,464.528 1086.804,475.888 1081.384,481.315 1094.291,481.315 1094.291,486.157 1104.411,486.157 1104.411,479.257
			1112.781,479.257 1122.354,488.841 1134.057,488.841 1120.531,475.304 1120.531,470.491 1113.826,470.491 1099.259,455.916
			1091.154,455.916 1085.877,450.636 1078.944,457.573 1078.944,448.813 1063.248,448.813 		"/>
	<polygon id="avstralia" fill="#112C65" points="1004.734,547.507 1004.734,563.875 999.154,563.875 1013.899,578.635 1013.899,593.725
			1005.669,601.967 1005.669,609.964 1024.267,609.964 1042.839,591.37 1059.151,591.37 1063.815,586.698 1073.799,586.698
			1085.509,598.416 1090.371,593.551 1090.371,603.149 1097.647,610.436 1097.647,620.628 1117.748,620.628 1121.968,624.846
			1132.612,614.186 1132.612,602.82 1147.774,587.648 1147.774,563.878 1138.088,554.178 1138.088,547.507 1120.533,529.935
			1120.533,517.978 1113.562,511.005 1113.562,502.523 1106.284,495.239 1106.284,515.183 1098.019,523.459 1088.059,513.485
			1088.059,502.522 1066.824,502.522 1055.267,514.092 1049.382,508.2 1026.805,530.802 1018.691,530.802 1004.731,547.507 		"/>
	<polygon id="avstralia" fill="#112C65" points="1112.1,637.26 1118.45,649.24 1125.426,649.24 1135.878,638.773 1135.878,629.703
			1130.397,635.191 1118.451,635.191 1118.256,629.704 1112.101,629.704 1112.101,637.261 		"/>
	<polygon id="avstralia" fill="#112C65" points="1195.834,660.56 1204.344,651.525 1204.344,644.717 1209.051,644.717 1218.305,635.455
			1209.575,626.719 1209.575,635.288 1202.775,635.288 1202.775,639.813 1198.065,639.813 1186.726,651.168 1195.835,660.559 		"/>
	<polygon id="avstralia" fill="#112C65" points="1211.932,622.194 1217.592,626.026 1217.592,632.41 1223.437,632.41 1226.096,629.75
			1226.096,622.194 1230.241,622.194 1230.241,613.295 1227.626,613.295 1225.276,615.651 1220.761,611.135 1220.761,606.484
			1212.031,597.747 1209.317,600.465 1215.33,606.484 1215.33,618.271 1211.933,622.195 		"/>
	<polygon id="avstralia" fill="#112C65" points="1041.271,479.26 1032.635,487.903 1032.635,492.143 1036.953,492.143 1044.691,484.395
			1044.691,479.26 		"/>
	<polygon id="avstralia" fill="#112C65" points="1124.29,470.494 1124.29,475.034 1134.056,475.034 1140.771,468.314 1140.771,460.722
			1134.101,454.044 1130.044,458.105 1135.94,464.012 1130.494,469.466 1124.292,470.494 		"/>
</g>
</svg>
